<svg xmlns="http://www.w3.org/2000/svg" viewBox="0 0 380 120" fill="#0D5EAF">
  <!-- tsifl wreath wordmark — wreath icon + text -->

  <!-- Wreath scaled and centered vertically -->
  <g transform="translate(55, 60) scale(0.105)">
    <!-- LEFT BRANCH -->
    <path d="M260 390 C240 370, 200 340, 175 300 C150 260, 140 220, 148 180 C156 140, 175 110, 205 85 C225 68, 248 60, 265 58"
          stroke="#0D5EAF" stroke-width="4.5" fill="none" stroke-linecap="round"/>
    <path d="M248 380 C240 365, 218 358, 208 350 C220 348, 240 360, 248 380Z"/>
    <path d="M252 378 C258 362, 268 345, 278 338 C270 350, 258 365, 252 378Z"/>
    <path d="M235 360 C222 348, 198 345, 185 340 C200 335, 225 342, 235 360Z"/>
    <path d="M240 355 C248 338, 258 322, 270 315 C260 328, 248 342, 240 355Z"/>
    <path d="M218 330 C202 320, 178 318, 162 316 C180 308, 208 312, 218 330Z"/>
    <path d="M222 325 C230 308, 242 292, 254 284 C244 298, 232 312, 222 325Z"/>
    <path d="M205 305 C188 296, 162 298, 145 298 C164 288, 192 288, 205 305Z"/>
    <path d="M210 298 C218 280, 232 265, 245 258 C234 272, 220 286, 210 298Z"/>
    <path d="M192 275 C174 268, 148 272, 130 275 C150 262, 178 260, 192 275Z"/>
    <path d="M196 268 C205 250, 220 236, 235 228 C222 240, 208 254, 196 268Z"/>
    <path d="M182 248 C164 244, 138 250, 120 256 C140 242, 168 238, 182 248Z"/>
    <path d="M186 240 C196 222, 214 208, 230 200 C216 212, 200 226, 186 240Z"/>
    <path d="M172 220 C156 218, 132 226, 115 234 C134 218, 158 212, 172 220Z"/>
    <path d="M178 212 C190 194, 208 180, 226 174 C210 184, 194 198, 178 212Z"/>
    <path d="M165 195 C150 196, 128 206, 112 216 C130 200, 154 190, 165 195Z"/>
    <path d="M172 186 C186 168, 206 156, 224 150 C208 160, 192 174, 172 186Z"/>
    <path d="M162 168 C148 172, 130 184, 116 196 C130 178, 150 166, 162 168Z"/>
    <path d="M170 158 C186 142, 206 130, 226 126 C208 134, 190 146, 170 158Z"/>
    <path d="M168 140 C158 146, 142 158, 132 172 C142 154, 158 140, 168 140Z"/>
    <path d="M178 130 C196 116, 216 108, 236 106 C218 112, 198 122, 178 130Z"/>
    <path d="M185 112 C175 120, 164 134, 158 148 C164 130, 176 116, 185 112Z"/>
    <path d="M195 105 C212 92, 232 86, 250 84 C234 90, 214 98, 195 105Z"/>
    <path d="M205 92 C198 100, 190 114, 186 126 C192 110, 200 98, 205 92Z"/>
    <path d="M215 82 C230 74, 248 70, 262 68 C248 74, 232 78, 215 82Z"/>
    <circle cx="228" cy="365" r="4.5"/>
    <circle cx="196" cy="312" r="4.5"/>
    <circle cx="175" cy="260" r="4.5"/>
    <circle cx="162" cy="205" r="4.5"/>
    <circle cx="168" cy="148" r="4"/>
    <circle cx="198" cy="98" r="3.5"/>

    <!-- RIGHT BRANCH -->
    <path d="M260 390 C280 370, 320 340, 345 300 C370 260, 380 220, 372 180 C364 140, 345 110, 315 85 C295 68, 272 60, 255 58"
          stroke="#0D5EAF" stroke-width="4.5" fill="none" stroke-linecap="round"/>
    <path d="M272 380 C280 365, 302 358, 312 350 C300 348, 280 360, 272 380Z"/>
    <path d="M268 378 C262 362, 252 345, 242 338 C250 350, 262 365, 268 378Z"/>
    <path d="M285 360 C298 348, 322 345, 335 340 C320 335, 295 342, 285 360Z"/>
    <path d="M280 355 C272 338, 262 322, 250 315 C260 328, 272 342, 280 355Z"/>
    <path d="M302 330 C318 320, 342 318, 358 316 C340 308, 312 312, 302 330Z"/>
    <path d="M298 325 C290 308, 278 292, 266 284 C276 298, 288 312, 298 325Z"/>
    <path d="M315 305 C332 296, 358 298, 375 298 C356 288, 328 288, 315 305Z"/>
    <path d="M310 298 C302 280, 288 265, 275 258 C286 272, 300 286, 310 298Z"/>
    <path d="M328 275 C346 268, 372 272, 390 275 C370 262, 342 260, 328 275Z"/>
    <path d="M324 268 C315 250, 300 236, 285 228 C298 240, 312 254, 324 268Z"/>
    <path d="M338 248 C356 244, 382 250, 400 256 C380 242, 352 238, 338 248Z"/>
    <path d="M334 240 C324 222, 306 208, 290 200 C304 212, 320 226, 334 240Z"/>
    <path d="M348 220 C364 218, 388 226, 405 234 C386 218, 362 212, 348 220Z"/>
    <path d="M342 212 C330 194, 312 180, 294 174 C310 184, 326 198, 342 212Z"/>
    <path d="M355 195 C370 196, 392 206, 408 216 C390 200, 366 190, 355 195Z"/>
    <path d="M348 186 C334 168, 314 156, 296 150 C312 160, 328 174, 348 186Z"/>
    <path d="M358 168 C372 172, 390 184, 404 196 C390 178, 370 166, 358 168Z"/>
    <path d="M350 158 C334 142, 314 130, 294 126 C312 134, 330 146, 350 158Z"/>
    <path d="M352 140 C362 146, 378 158, 388 172 C378 154, 362 140, 352 140Z"/>
    <path d="M342 130 C324 116, 304 108, 284 106 C302 112, 322 122, 342 130Z"/>
    <path d="M335 112 C345 120, 356 134, 362 148 C356 130, 344 116, 335 112Z"/>
    <path d="M325 105 C308 92, 288 86, 270 84 C286 90, 306 98, 325 105Z"/>
    <path d="M315 92 C322 100, 330 114, 334 126 C328 110, 320 98, 315 92Z"/>
    <path d="M305 82 C290 74, 272 70, 258 68 C272 74, 288 78, 305 82Z"/>
    <circle cx="292" cy="365" r="4.5"/>
    <circle cx="324" cy="312" r="4.5"/>
    <circle cx="345" cy="260" r="4.5"/>
    <circle cx="358" cy="205" r="4.5"/>
    <circle cx="352" cy="148" r="4"/>
    <circle cx="322" cy="98" r="3.5"/>
  </g>

  <!-- TEXT -->
  <text x="130" y="72" font-family="-apple-system, BlinkMacSystemFont, 'Segoe UI', sans-serif"
        font-size="44" font-weight="700" fill="#0D5EAF" letter-spacing="-1.5">tsifl</text>
</svg>
