<svg xmlns="http://www.w3.org/2000/svg" viewBox="0 0 512 512" fill="#0D5EAF">
<path d="M152.1,196.0 L146.0,207.0 L141.1,218.7 L137.5,230.8 L135.1,243.3 L134.1,256.0 L134.4,268.8 L136.1,281.5 L139.1,294.0 L143.4,306.1 L149.0,317.8 L155.8,328.8 L163.8,339.0 L172.9,348.3 L182.8,356.7 L193.7,363.9 L205.3,370.0 L217.4,374.8 L230.0,378.2 L242.9,380.3 L256.0,381.0 L269.1,380.3 L282.0,378.2 L294.6,374.8 L306.7,370.0 L318.3,363.9 L329.2,356.7 L339.1,348.3 L348.2,339.0 L356.2,328.8 L363.0,317.8 L368.6,306.1 L372.9,294.0 L375.9,281.5 L377.6,268.8 L377.9,256.0 L376.9,243.3 L374.5,230.8 L370.9,218.7 L366.0,207.0 L359.9,196.0" stroke="#0D5EAF" stroke-width="2.8" fill="none" stroke-linecap="round"/>
<path d="M152.1,196.0 Q151.0,182.7 137.5,175.1 Q140.0,190.5 152.1,196.0Z"/>
<path d="M152.1,196.0 Q162.3,200.9 173.7,194.1 Q161.3,189.4 152.1,196.0Z"/>
<path d="M152.1,196.0 Q156.8,188.0 152.1,178.2 Q147.4,188.0 152.1,196.0Z"/>
<path d="M152.1,196.0 Q154.2,204.4 163.8,207.7 Q160.5,198.2 152.1,196.0Z"/>
<path d="M135.8,238.7 Q128.8,224.6 110.5,222.1 Q120.0,238.0 135.8,238.7Z"/>
<path d="M135.8,238.7 Q149.2,239.6 158.8,227.1 Q143.1,227.4 135.8,238.7Z"/>
<path d="M136.8,284.9 Q123.3,272.8 102.7,278.1 Q119.6,290.9 136.8,284.9Z"/>
<path d="M136.8,284.9 Q151.4,280.1 156.2,262.8 Q139.7,269.8 136.8,284.9Z"/>
<path d="M136.8,284.9 Q133.9,272.6 120.0,267.4 Q124.6,281.5 136.8,284.9Z"/>
<path d="M155.2,327.8 Q136.4,320.9 117.5,334.8 Q140.0,340.9 155.2,327.8Z"/>
<path d="M155.2,327.8 Q168.2,316.9 166.1,297.1 Q151.9,311.1 155.2,327.8Z"/>
<path d="M155.2,327.8 Q168.0,330.1 178.5,319.1 Q163.4,317.7 155.2,327.8Z"/>
<path d="M188.7,360.8 Q167.3,361.5 154.0,382.6 Q178.9,379.8 188.7,360.8Z"/>
<path d="M188.7,360.8 Q197.3,344.8 187.3,326.0 Q178.8,345.5 188.7,360.8Z"/>
<path d="M188.7,360.8 Q176.1,352.6 160.0,359.4 Q175.4,367.7 188.7,360.8Z"/>
<path d="M232.4,378.7 Q212.1,387.5 207.5,413.0 Q230.3,400.7 232.4,378.7Z"/>
<path d="M232.4,378.7 Q234.4,360.0 217.7,345.8 Q217.1,367.8 232.4,378.7Z"/>
<path d="M279.6,378.7 Q264.1,394.4 269.3,419.7 Q285.9,399.9 279.6,378.7Z"/>
<path d="M279.6,378.7 Q274.6,360.6 253.8,353.7 Q261.4,374.3 279.6,378.7Z"/>
<path d="M279.6,378.7 Q264.4,381.5 257.3,398.1 Q274.7,393.3 279.6,378.7Z"/>
<path d="M279.6,378.7 Q287.8,366.9 281.6,351.2 Q273.3,365.8 279.6,378.7Z"/>
<path d="M323.3,360.8 Q315.1,380.5 328.8,401.4 Q336.6,377.6 323.3,360.8Z"/>
<path d="M323.3,360.8 Q312.3,346.3 291.1,347.6 Q305.3,363.4 323.3,360.8Z"/>
<path d="M356.8,327.8 Q356.5,347.8 375.7,361.2 Q374.2,337.8 356.8,327.8Z"/>
<path d="M356.8,327.8 Q342.2,319.1 324.2,327.5 Q342.1,336.3 356.8,327.8Z"/>
<path d="M356.8,327.8 Q348.6,339.1 354.3,354.5 Q362.8,340.5 356.8,327.8Z"/>
<path d="M375.2,284.9 Q381.7,301.8 402.3,306.6 Q393.2,287.5 375.2,284.9Z"/>
<path d="M375.2,284.9 Q360.0,282.5 347.8,295.7 Q365.7,297.0 375.2,284.9Z"/>
<path d="M375.2,284.9 Q369.2,274.8 355.5,274.1 Q363.5,285.3 375.2,284.9Z"/>
<path d="M376.2,238.7 Q386.9,250.3 405.2,247.5 Q391.5,235.0 376.2,238.7Z"/>
<path d="M376.2,238.7 Q363.1,241.7 357.4,256.3 Q372.4,251.6 376.2,238.7Z"/>
<path d="M376.2,238.7 Q377.7,249.7 389.3,255.4 Q386.5,242.8 376.2,238.7Z"/>
<path d="M359.9,196.0 Q371.9,201.7 385.3,193.8 Q370.8,188.3 359.9,196.0Z"/>
<path d="M359.9,196.0 Q350.6,202.4 350.8,215.6 Q361.0,207.3 359.9,196.0Z"/>
<circle cx="137.0" cy="230.8" r="4"/>
<circle cx="181.9" cy="356.5" r="4"/>
<circle cx="316.6" cy="365.1" r="4"/>
<circle cx="377.3" cy="246.6" r="4"/>
<path d="M359.9,316.0 L355.2,324.2 L349.9,332.0 L343.9,339.4 L337.3,346.3 L330.2,352.7 L322.6,358.5 L314.5,363.8 L306.0,368.3 L297.1,372.2 L288.0,375.3 L278.6,377.7 L269.0,379.4 L259.3,380.2 L249.5,380.3 L239.7,379.6 L230.1,378.0 L220.5,375.7 L211.2,372.6 L202.2,368.8 L193.5,364.3 L185.2,359.0 L177.4,353.1 L170.1,346.6 L163.3,339.5 L157.1,331.9 L151.6,323.8 L146.8,315.3 L142.7,306.5 L139.3,297.3 L136.7,288.0 L134.8,278.5 L133.7,268.9 L133.4,259.2 L133.9,249.6 L135.1,240.1 L137.1,230.7 L139.8,221.6 L143.2,212.7 L147.3,204.2 L152.1,196.0" stroke="#0D5EAF" stroke-width="2.8" fill="none" stroke-linecap="round"/>
<path d="M359.9,316.0 Q370.8,323.7 385.3,318.2 Q371.9,310.3 359.9,316.0Z"/>
<path d="M359.9,316.0 Q361.0,304.7 350.8,296.4 Q350.6,309.6 359.9,316.0Z"/>
<path d="M359.9,316.0 Q369.2,316.1 375.4,307.1 Q364.5,307.9 359.9,316.0Z"/>
<path d="M359.9,316.0 Q353.9,309.8 343.9,311.7 Q351.6,318.3 359.9,316.0Z"/>
<path d="M339.8,343.9 Q349.6,356.3 368.0,354.9 Q355.4,341.4 339.8,343.9Z"/>
<path d="M339.8,343.9 Q344.8,331.4 335.9,318.4 Q331.3,333.4 339.8,343.9Z"/>
<path d="M312.2,365.1 Q319.0,381.9 339.7,386.3 Q330.2,367.4 312.2,365.1Z"/>
<path d="M312.2,365.1 Q321.7,353.0 316.2,335.8 Q306.3,350.9 312.2,365.1Z"/>
<path d="M312.2,365.1 Q322.8,372.0 336.5,366.2 Q323.4,359.2 312.2,365.1Z"/>
<path d="M279.4,377.5 Q281.3,397.5 301.9,408.6 Q297.8,385.6 279.4,377.5Z"/>
<path d="M279.4,377.5 Q293.3,367.7 292.7,347.8 Q277.5,360.6 279.4,377.5Z"/>
<path d="M279.4,377.5 Q280.5,364.6 268.5,355.1 Q268.6,370.3 279.4,377.5Z"/>
<path d="M244.2,380.0 Q240.1,401.0 257.9,418.6 Q260.5,393.7 244.2,380.0Z"/>
<path d="M244.2,380.0 Q261.3,374.0 266.8,353.5 Q247.3,362.1 244.2,380.0Z"/>
<path d="M244.2,380.0 Q250.3,393.7 267.5,396.6 Q259.1,381.3 244.2,380.0Z"/>
<path d="M209.6,372.0 Q199.4,391.6 211.9,414.3 Q221.8,390.4 209.6,372.0Z"/>
<path d="M209.6,372.0 Q228.3,371.1 239.7,352.3 Q217.9,355.2 209.6,372.0Z"/>
<path d="M178.8,354.2 Q163.5,370.2 169.1,395.4 Q185.3,375.3 178.8,354.2Z"/>
<path d="M178.8,354.2 Q197.0,358.6 213.2,343.8 Q191.5,340.4 178.8,354.2Z"/>
<path d="M178.8,354.2 Q176.4,369.5 189.8,381.7 Q191.0,363.7 178.8,354.2Z"/>
<path d="M178.8,354.2 Q190.3,345.7 189.6,328.9 Q176.9,340.0 178.8,354.2Z"/>
<path d="M154.5,328.2 Q136.0,338.9 134.3,363.9 Q154.9,349.6 154.5,328.2Z"/>
<path d="M154.5,328.2 Q170.3,337.3 189.4,328.0 Q170.1,318.9 154.5,328.2Z"/>
<path d="M139.0,296.5 Q119.6,301.2 111.5,323.2 Q133.7,315.8 139.0,296.5Z"/>
<path d="M139.0,296.5 Q150.8,308.8 170.4,305.4 Q155.5,292.2 139.0,296.5Z"/>
<path d="M139.0,296.5 Q129.8,307.0 133.9,322.8 Q143.7,309.7 139.0,296.5Z"/>
<path d="M133.4,261.8 Q115.3,261.0 102.7,278.0 Q123.9,277.2 133.4,261.8Z"/>
<path d="M133.4,261.8 Q140.5,275.5 158.4,277.6 Q148.8,262.3 133.4,261.8Z"/>
<path d="M133.4,261.8 Q144.9,264.4 154.9,255.0 Q141.3,253.1 133.4,261.8Z"/>
<path d="M138.0,227.4 Q123.1,222.2 108.3,233.3 Q126.2,237.9 138.0,227.4Z"/>
<path d="M138.0,227.4 Q140.6,240.6 155.0,246.7 Q150.8,231.6 138.0,227.4Z"/>
<path d="M138.0,227.4 Q127.4,230.4 123.4,242.7 Q135.5,238.2 138.0,227.4Z"/>
<path d="M152.1,196.0 Q141.2,188.3 126.7,193.8 Q140.1,201.7 152.1,196.0Z"/>
<path d="M152.1,196.0 Q151.0,207.3 161.2,215.6 Q161.4,202.4 152.1,196.0Z"/>
<circle cx="345.6" cy="338.3" r="4"/>
<circle cx="252.1" cy="380.7" r="4"/>
<circle cx="159.2" cy="334.8" r="4"/>
<circle cx="136.1" cy="235.2" r="4"/>
</svg>